<?xml version="1.0" encoding="UTF-8"?>
<!DOCTYPE svg PUBLIC "-//W3C//DTD SVG 1.1//EN" "http://www.w3.org/Graphics/SVG/1.1/DTD/svg11.dtd">
<svg xmlns="http://www.w3.org/2000/svg" version="1.1" width="275px" height="275px" style="shape-rendering:geometricPrecision; text-rendering:geometricPrecision; image-rendering:optimizeQuality; fill-rule:evenodd; clip-rule:evenodd" xmlns:xlink="http://www.w3.org/1999/xlink">
<g><path style="opacity:0.993" fill="#010101" d="M 120.5,-0.5 C 131.5,-0.5 142.5,-0.5 153.5,-0.5C 221.5,12.1667 261.833,52.5 274.5,120.5C 274.5,131.5 274.5,142.5 274.5,153.5C 261.833,221.5 221.5,261.833 153.5,274.5C 142.5,274.5 131.5,274.5 120.5,274.5C 52.5,261.833 12.1667,221.5 -0.5,153.5C -0.5,142.5 -0.5,131.5 -0.5,120.5C 12.1667,52.5 52.5,12.1667 120.5,-0.5 Z"/></g>
<g><path style="opacity:1" fill="#efefef" d="M 24.5,165.5 C 24.8324,153.149 24.499,140.815 23.5,128.5C 22.8933,128.624 22.56,128.957 22.5,129.5C 20.6954,130.237 19.0287,131.237 17.5,132.5C 16.5041,138.463 16.1707,144.463 16.5,150.5C 18.1667,150.5 19.8333,150.5 21.5,150.5C 21.5,151.833 21.5,153.167 21.5,154.5C 18.5,154.5 15.5,154.5 12.5,154.5C 12.1688,146.14 12.5021,137.807 13.5,129.5C 23.6019,123.699 33.7686,118.033 44,112.5C 46.3899,113.172 46.8899,114.505 45.5,116.5C 40.1667,119.5 34.8333,122.5 29.5,125.5C 28.5021,133.807 28.1688,142.14 28.5,150.5C 43.1667,150.5 57.8333,150.5 72.5,150.5C 72.6665,141.161 72.4998,131.827 72,122.5C 67.9901,117.659 63.8234,112.992 59.5,108.5C 57.3703,109.467 55.3703,110.634 53.5,112C 57.3333,116.5 61.1667,121 65,125.5C 65.4997,132.826 65.6663,140.159 65.5,147.5C 63.8333,147.5 62.1667,147.5 60.5,147.5C 60.6663,140.492 60.4996,133.492 60,126.5C 52.3116,117.646 44.8116,108.646 37.5,99.5C 34.7489,101.293 31.9156,102.959 29,104.5C 28.8283,109.202 28.3283,113.868 27.5,118.5C 26.2519,119.04 25.0852,119.707 24,120.5C 23.3333,114.5 23.3333,108.5 24,102.5C 28.5199,99.5735 33.1866,96.9068 38,94.5C 42.6317,98.8017 46.965,103.468 51,108.5C 54.1694,105.94 57.6694,104.44 61.5,104C 66.7105,109.542 71.5438,115.375 76,121.5C 76.4998,132.495 76.6665,143.495 76.5,154.5C 72.8333,154.5 69.1667,154.5 65.5,154.5C 65.5,158.167 65.5,161.833 65.5,165.5C 51.8333,165.5 38.1667,165.5 24.5,165.5 Z"/></g>
<g><path style="opacity:1" fill="#efefef" d="M 94.5,115.5 C 111.018,114.182 117.184,121.515 113,137.5C 105.916,145.852 98.2497,146.519 90,139.5C 84.3443,130.034 85.8443,122.034 94.5,115.5 Z"/></g>
<g><path style="opacity:1" fill="#ececec" d="M 123.5,115.5 C 127.637,115.146 131.637,115.646 135.5,117C 137.451,118.734 138.451,120.901 138.5,123.5C 136.396,123.799 134.396,123.466 132.5,122.5C 129.783,118.518 127.116,118.518 124.5,122.5C 124.608,123.442 124.941,124.275 125.5,125C 129.987,126.603 134.154,128.77 138,131.5C 139.69,139.317 136.524,143.65 128.5,144.5C 122.112,144.112 118.779,140.779 118.5,134.5C 120.199,134.34 121.866,134.506 123.5,135C 124.848,139.001 127.515,140.334 131.5,139C 134.167,137 134.167,135 131.5,133C 126.987,131.948 123.153,129.782 120,126.5C 118.663,121.872 119.83,118.205 123.5,115.5 Z"/></g>
<g><path style="opacity:1" fill="#f2f2f2" d="M 168.5,143.5 C 168.666,137.158 168.5,130.825 168,124.5C 167.283,125.044 166.783,125.711 166.5,126.5C 164.952,130.598 163.119,134.598 161,138.5C 159.186,139.76 157.353,139.76 155.5,138.5C 153.333,134.167 151.167,129.833 149,125.5C 148.501,131.491 148.334,137.491 148.5,143.5C 146.833,143.5 145.167,143.5 143.5,143.5C 143.5,134.167 143.5,124.833 143.5,115.5C 145.792,115.244 147.959,115.577 150,116.5C 152.667,121.833 155.333,127.167 158,132.5C 161.088,127.325 163.921,121.992 166.5,116.5C 168.743,115.526 171.076,115.192 173.5,115.5C 173.5,124.833 173.5,134.167 173.5,143.5C 171.833,143.5 170.167,143.5 168.5,143.5 Z"/></g>
<g><path style="opacity:1" fill="#efefef" d="M 186.5,115.5 C 188.833,115.5 191.167,115.5 193.5,115.5C 196.5,124.833 199.5,134.167 202.5,143.5C 198.219,144.517 195.886,142.85 195.5,138.5C 191.555,137.509 187.555,137.176 183.5,137.5C 183.167,139.5 182.833,141.5 182.5,143.5C 180.396,143.799 178.396,143.466 176.5,142.5C 180.234,133.631 183.567,124.631 186.5,115.5 Z"/></g>
<g><path style="opacity:1" fill="#f6f6f6" d="M 206.5,115.5 C 208.604,115.201 210.604,115.534 212.5,116.5C 216.333,122.167 220.167,127.833 224,133.5C 224.499,127.509 224.666,121.509 224.5,115.5C 226.167,115.5 227.833,115.5 229.5,115.5C 229.5,124.833 229.5,134.167 229.5,143.5C 226.956,143.896 224.789,143.229 223,141.5C 219.333,135.833 215.667,130.167 212,124.5C 211.5,130.825 211.334,137.158 211.5,143.5C 209.833,143.5 208.167,143.5 206.5,143.5C 206.5,134.167 206.5,124.833 206.5,115.5 Z"/></g>
<g><path style="opacity:1" fill="#0a0a0a" d="M 97.5,119.5 C 108.23,119.944 111.73,125.277 108,135.5C 102.514,141.08 97.5135,140.747 93,134.5C 91.2541,128.342 92.7541,123.342 97.5,119.5 Z"/></g>
<g><path style="opacity:1" fill="#141414" d="M 193.5,132.5 C 190.941,132.802 188.607,132.468 186.5,131.5C 189.174,119.665 191.507,119.999 193.5,132.5 Z"/></g>
<g><path style="opacity:1" fill="#9a9a9a" d="M 168.5,143.5 C 167.833,137.833 167.167,132.167 166.5,126.5C 166.783,125.711 167.283,125.044 168,124.5C 168.5,130.825 168.666,137.158 168.5,143.5 Z"/></g>
<g><path style="opacity:1" fill="#b0b0b0" d="M 22.5,129.5 C 22.56,128.957 22.8933,128.624 23.5,128.5C 24.499,140.815 24.8324,153.149 24.5,165.5C 23.8333,153.5 23.1667,141.5 22.5,129.5 Z"/></g>
<g><path style="opacity:1" fill="#8c8c8c" d="M 186.5,131.5 C 188.607,132.468 190.941,132.802 193.5,132.5C 190.976,133.8 188.309,133.8 185.5,132.5C 185.624,131.893 185.957,131.56 186.5,131.5 Z"/></g>
<g><path style="opacity:1" fill="#9e9e9e" d="M 39.5,131.5 C 40.5676,130.566 41.901,130.232 43.5,130.5C 43.5,132.167 43.5,133.833 43.5,135.5C 41.8333,135.5 40.1667,135.5 38.5,135.5C 38.2322,133.901 38.5655,132.568 39.5,131.5 Z"/></g>
<g><path style="opacity:1" fill="#fefffe" d="M 39.5,131.5 C 40.5,131.5 41.5,131.5 42.5,131.5C 42.5,132.5 42.5,133.5 42.5,134.5C 41.5,134.5 40.5,134.5 39.5,134.5C 39.5,133.5 39.5,132.5 39.5,131.5 Z"/></g>
<g><path style="opacity:1" fill="#9e9e9e" d="M 49.5,131.5 C 50.4345,132.568 50.7678,133.901 50.5,135.5C 48.8333,135.5 47.1667,135.5 45.5,135.5C 45.5,133.833 45.5,132.167 45.5,130.5C 47.099,130.232 48.4324,130.566 49.5,131.5 Z"/></g>
<g><path style="opacity:1" fill="#fefffe" d="M 49.5,131.5 C 49.5,132.5 49.5,133.5 49.5,134.5C 48.5,134.5 47.5,134.5 46.5,134.5C 46.5,133.5 46.5,132.5 46.5,131.5C 47.5,131.5 48.5,131.5 49.5,131.5 Z"/></g>
<g><path style="opacity:1" fill="#ececec" d="M 39.5,137.5 C 40.8333,137.5 42.1667,137.5 43.5,137.5C 43.5,138.833 43.5,140.167 43.5,141.5C 43.5,140.167 43.5,138.833 43.5,137.5C 42.1667,137.5 40.8333,137.5 39.5,137.5 Z"/></g>
<g><path style="opacity:1" fill="#ebebeb" d="M 49.5,137.5 C 49.5,138.833 49.5,140.167 49.5,141.5C 48.1667,141.5 46.8333,141.5 45.5,141.5C 45.5,140.167 45.5,138.833 45.5,137.5C 46.8333,137.5 48.1667,137.5 49.5,137.5 Z"/></g>
<g><path style="opacity:1" fill="#707070" d="M 39.5,137.5 C 39.5,138.833 39.5,140.167 39.5,141.5C 40.8333,141.5 42.1667,141.5 43.5,141.5C 42.0813,142.451 40.4147,142.784 38.5,142.5C 38.2155,140.585 38.5489,138.919 39.5,137.5 Z"/></g>
<g><path style="opacity:1" fill="#727272" d="M 49.5,137.5 C 50.4511,138.919 50.7845,140.585 50.5,142.5C 48.5853,142.784 46.9187,142.451 45.5,141.5C 46.8333,141.5 48.1667,141.5 49.5,141.5C 49.5,140.167 49.5,138.833 49.5,137.5 Z"/></g>
<g><path style="opacity:1" fill="#bbbbbb" d="M 85.5,153.5 C 87.7925,153.244 89.9592,153.577 92,154.5C 93.1772,158.492 91.6772,160.158 87.5,159.5C 87.762,160.978 87.4287,162.311 86.5,163.5C 85.513,160.232 85.1796,156.898 85.5,153.5 Z"/></g>
<g><path style="opacity:1" fill="#b8b8b8" d="M 187.5,153.5 C 189.792,153.244 191.959,153.577 194,154.5C 193.844,157.664 193.678,160.664 193.5,163.5C 192.5,162.167 191.5,160.833 190.5,159.5C 189.833,160.833 189.167,162.167 188.5,163.5C 187.513,160.232 187.18,156.898 187.5,153.5 Z"/></g>
<g><path style="opacity:1" fill="#4b4b4b" d="M 28.5,155.5 C 39.3206,154.505 50.3206,154.172 61.5,154.5C 61.8016,157.059 61.4682,159.393 60.5,161.5C 60.5,159.5 60.5,157.5 60.5,155.5C 49.8333,155.5 39.1667,155.5 28.5,155.5 Z"/></g>
<g><path style="opacity:1" fill="#b6b6b6" d="M 96.5,153.5 C 99.0444,153.104 101.211,153.771 103,155.5C 103.711,157.367 103.211,158.867 101.5,160C 102.772,161.246 103.105,162.413 102.5,163.5C 101.5,162.167 100.5,160.833 99.5,159.5C 98.8333,160.833 98.1667,162.167 97.5,163.5C 96.513,160.232 96.1796,156.898 96.5,153.5 Z"/></g>
<g><path style="opacity:1" fill="#b6b6b6" d="M 107.5,153.5 C 109.527,153.338 111.527,153.505 113.5,154C 112.207,154.49 110.873,154.657 109.5,154.5C 109.5,155.5 109.5,156.5 109.5,157.5C 114.833,158.167 114.833,158.833 109.5,159.5C 109.5,160.5 109.5,161.5 109.5,162.5C 110.873,162.343 112.207,162.51 113.5,163C 111.527,163.495 109.527,163.662 107.5,163.5C 107.5,160.167 107.5,156.833 107.5,153.5 Z"/></g>
<g><path style="opacity:1" fill="#979797" d="M 132.5,153.5 C 133.777,154.694 134.444,156.36 134.5,158.5C 134.167,160.167 133.833,161.833 133.5,163.5C 132.513,160.232 132.18,156.898 132.5,153.5 Z"/></g>
<g><path style="opacity:1" fill="#b6b6b6" d="M 233.5,153.5 C 236.044,153.104 238.211,153.771 240,155.5C 240.711,157.367 240.211,158.867 238.5,160C 239.772,161.246 240.105,162.413 239.5,163.5C 238.5,162.167 237.5,160.833 236.5,159.5C 235.833,160.833 235.167,162.167 234.5,163.5C 233.513,160.232 233.18,156.898 233.5,153.5 Z"/></g>
<g><path style="opacity:1" fill="#000000" d="M 28.5,155.5 C 39.1667,155.5 49.8333,155.5 60.5,155.5C 60.5,157.5 60.5,159.5 60.5,161.5C 49.8333,161.5 39.1667,161.5 28.5,161.5C 28.5,159.5 28.5,157.5 28.5,155.5 Z"/></g>
<g><path style="opacity:1" fill="#1e1e1e" d="M 87.5,154.5 C 89.3464,154.222 90.6798,154.889 91.5,156.5C 90.6798,158.111 89.3464,158.778 87.5,158.5C 87.5,157.167 87.5,155.833 87.5,154.5 Z"/></g>
<g><path style="opacity:1" fill="#0b0b0b" d="M 98.5,155.5 C 99.5,155.5 100.5,155.5 101.5,155.5C 101.5,156.5 101.5,157.5 101.5,158.5C 100.5,158.5 99.5,158.5 98.5,158.5C 98.5,157.5 98.5,156.5 98.5,155.5 Z"/></g>
<g><path style="opacity:1" fill="#d4d4d4" d="M 182.5,158.5 C 181.432,159.434 180.099,159.768 178.5,159.5C 178.657,160.873 178.49,162.207 178,163.5C 177.502,160.183 177.335,156.85 177.5,153.5C 180.596,152.907 182.929,153.907 184.5,156.5C 184.145,157.522 183.478,158.189 182.5,158.5 Z"/></g>
<g><path style="opacity:1" fill="#343434" d="M 182.5,158.5 C 181.167,158.5 179.833,158.5 178.5,158.5C 178.5,157.167 178.5,155.833 178.5,154.5C 181.5,154.167 182.833,155.5 182.5,158.5 Z"/></g>
<g><path style="opacity:1" fill="#161616" d="M 189.5,154.5 C 190.5,154.5 191.5,154.5 192.5,154.5C 192.5,155.833 192.5,157.167 192.5,158.5C 191.5,158.5 190.5,158.5 189.5,158.5C 189.5,157.167 189.5,155.833 189.5,154.5 Z"/></g>
<g><path style="opacity:1" fill="#d4d4d4" d="M 217.5,158.5 C 216.432,159.434 215.099,159.768 213.5,159.5C 213.657,160.873 213.49,162.207 213,163.5C 212.502,160.183 212.335,156.85 212.5,153.5C 215.596,152.907 217.929,153.907 219.5,156.5C 219.145,157.522 218.478,158.189 217.5,158.5 Z"/></g>
<g><path style="opacity:1" fill="#343434" d="M 217.5,158.5 C 216.167,158.5 214.833,158.5 213.5,158.5C 213.5,157.167 213.5,155.833 213.5,154.5C 216.5,154.167 217.833,155.5 217.5,158.5 Z"/></g>
<g><path style="opacity:1" fill="#0b0b0b" d="M 235.5,155.5 C 236.5,155.5 237.5,155.5 238.5,155.5C 238.5,156.5 238.5,157.5 238.5,158.5C 237.5,158.5 236.5,158.5 235.5,158.5C 235.5,157.5 235.5,156.5 235.5,155.5 Z"/></g>
<g><path style="opacity:1" fill="#b7b7b7" d="M 244.5,154.5 C 248.991,153.259 250.324,153.259 248.5,154.5C 248.817,157.572 248.484,160.572 247.5,163.5C 247.094,160.061 246.094,157.061 244.5,154.5 Z"/></g>
<g><path style="opacity:1" fill="#afafaf" d="M 254.5,153.5 C 256.335,154.122 257.502,155.456 258,157.5C 259,156.167 260,154.833 261,153.5C 260.525,156.828 259.691,160.162 258.5,163.5C 257.695,159.9 256.362,156.567 254.5,153.5 Z"/></g>
<g><path style="opacity:1" fill="#868686" d="M 224.5,157.5 C 231.167,158.167 231.167,158.833 224.5,159.5C 224.5,158.833 224.5,158.167 224.5,157.5 Z"/></g>
<g><path style="opacity:1" fill="#c1c1c1" d="M 118.5,153.5 C 120.223,155.253 121.723,157.253 123,159.5C 124.268,157.283 125.768,155.283 127.5,153.5C 128.833,156.833 128.833,160.167 127.5,163.5C 126.692,161.577 126.192,159.577 126,157.5C 124,164.167 122,164.167 120,157.5C 119.667,159.5 119.333,161.5 119,163.5C 118.502,160.183 118.335,156.85 118.5,153.5 Z"/></g>
<g><path style="opacity:1" fill="#c1c1c1" d="M 150.5,153.5 C 152.223,155.253 153.723,157.253 155,159.5C 156.268,157.283 157.768,155.283 159.5,153.5C 160.833,156.833 160.833,160.167 159.5,163.5C 158.692,161.577 158.192,159.577 158,157.5C 156,164.167 154,164.167 152,157.5C 151.667,159.5 151.333,161.5 151,163.5C 150.502,160.183 150.335,156.85 150.5,153.5 Z"/></g>
<g><path style="opacity:1" fill="#b7b7b7" d="M 205.5,154.5 C 208.247,155.973 209.081,158.306 208,161.5C 205.847,163.444 203.347,163.944 200.5,163C 198.012,160.373 197.845,157.54 200,154.5C 201.943,153.193 203.777,153.193 205.5,154.5 Z"/></g>
<g><path style="opacity:1" fill="#0f0f0f" d="M 205.5,154.5 C 206.537,156.738 206.703,159.071 206,161.5C 200.669,162.947 199.169,160.947 201.5,155.5C 202.736,154.754 204.07,154.421 205.5,154.5 Z"/></g>
<g><path style="opacity:1" fill="#e4e4e4" d="M 138.5,153.5 C 139.317,155.969 139.817,158.635 140,161.5C 141.333,162.833 142.667,162.833 144,161.5C 144.333,158.833 144.667,156.167 145,153.5C 145.784,156.76 145.617,159.927 144.5,163C 142.559,163.743 140.726,163.576 139,162.5C 138.502,159.518 138.335,156.518 138.5,153.5 Z"/></g>
<g><path style="opacity:1" fill="#f1f1f1" d="M 224.5,157.5 C 224.5,158.167 224.5,158.833 224.5,159.5C 224.5,160.5 224.5,161.5 224.5,162.5C 226.199,162.34 227.866,162.506 229.5,163C 227.527,163.495 225.527,163.662 223.5,163.5C 223.5,160.167 223.5,156.833 223.5,153.5C 225.527,153.338 227.527,153.505 229.5,154C 227.866,154.494 226.199,154.66 224.5,154.5C 224.5,155.5 224.5,156.5 224.5,157.5 Z"/></g>
</svg>
